<svg width="18" height="18" viewBox="0 0 18 18" fill="none" xmlns="http://www.w3.org/2000/svg">
<path fill-rule="evenodd" clip-rule="evenodd" d="M3.90693 0.280614C7.29195 -0.0935381 10.708 -0.0935381 14.093 0.280614C15.9672 0.490325 17.4792 1.96376 17.6992 3.84133C18.1003 7.26879 18.1003 10.7312 17.6992 14.1587C17.4792 16.0362 15.9672 17.5097 14.093 17.7194C10.708 18.0935 7.29195 18.0935 3.90693 17.7194C2.03274 17.5097 0.520692 16.0362 0.300778 14.1587C-0.100259 10.7316 -0.100259 7.26952 0.300778 3.84242C0.412012 2.93026 0.828549 2.08232 1.48288 1.43604C2.13721 0.789757 2.99099 0.383005 3.90584 0.281706M8.99997 3.54642C9.2176 3.54642 9.42631 3.63273 9.5802 3.78636C9.73409 3.93998 9.82054 4.14835 9.82054 4.36561V8.18082H13.6422C13.8599 8.18082 14.0686 8.26712 14.2225 8.42075C14.3764 8.57438 14.4628 8.78274 14.4628 9C14.4628 9.21726 14.3764 9.42562 14.2225 9.57925C14.0686 9.73288 13.8599 9.81918 13.6422 9.81918H9.82054V13.6344C9.82054 13.8517 9.73409 14.06 9.5802 14.2136C9.42631 14.3673 9.2176 14.4536 8.99997 14.4536C8.78234 14.4536 8.57362 14.3673 8.41973 14.2136C8.26585 14.06 8.17939 13.8517 8.17939 13.6344V9.81918H4.3577C4.14007 9.81918 3.93135 9.73288 3.77747 9.57925C3.62358 9.42562 3.53713 9.21726 3.53713 9C3.53713 8.78274 3.62358 8.57438 3.77747 8.42075C3.93135 8.26712 4.14007 8.18082 4.3577 8.18082H8.17939V4.36561C8.17939 4.14835 8.26585 3.93998 8.41973 3.78636C8.57362 3.63273 8.78234 3.54642 8.99997 3.54642Z" fill="black"/>
</svg>
