<svg width="19" height="18" viewBox="0 0 19 18" fill="none" xmlns="http://www.w3.org/2000/svg">
<path d="M2.67781e-09 17V1.00007C-1.17021e-05 0.840113 0.0383485 0.682488 0.111861 0.540425C0.185373 0.398361 0.291892 0.276005 0.422477 0.183626C0.553062 0.0912475 0.703903 0.031542 0.862337 0.00952146C1.02077 -0.0124991 1.18218 0.0038077 1.33301 0.0570731L18.3331 6.05705C18.5323 6.12744 18.7042 6.25914 18.8239 6.43326C18.9437 6.60738 19.0052 6.81497 18.9997 7.02622C18.9941 7.23748 18.9218 7.44155 18.793 7.60914C18.6643 7.77672 18.4858 7.89922 18.2831 7.95904L2.00001 12.747V17C2.00001 17.2652 1.89465 17.5196 1.70711 17.7071C1.51958 17.8946 1.26522 18 1 18C0.734786 18 0.480431 17.8946 0.292894 17.7071C0.105357 17.5196 2.67781e-09 17.2652 2.67781e-09 17Z" fill="black"/>
</svg>
