<svg width="18" height="18" viewBox="0 0 18 18" fill="none" xmlns="http://www.w3.org/2000/svg">
<rect x="0.5" y="0.5" width="17" height="17" rx="2.5" stroke="#E8E8E8"/>
<path d="M4.82033 6.64957C5.5536 6.64957 6.14023 6.05378 6.14023 5.32967C6.14023 4.60555 5.54444 4.00977 4.82033 4.00977C4.09622 4.00977 3.50043 4.60555 3.50043 5.32967C3.50043 6.05378 4.09622 6.64957 4.82033 6.64957ZM7.39596 7.64866V14.9998H9.66913V11.37C9.66913 10.4076 9.85245 9.48185 11.0349 9.48185C12.2173 9.48185 12.2173 10.5818 12.2173 11.425V14.9998H14.4996V10.9667C14.4996 8.98689 14.078 7.46534 11.7681 7.46534C10.6591 7.46534 9.91661 8.07029 9.61413 8.64775H9.58663V7.63949H7.40513L7.39596 7.64866ZM3.68375 7.64866H5.96607V14.9998H3.68375V7.64866Z" fill="#E8E8E8"/>
</svg>
