<svg width="18" height="18" viewBox="0 0 18 18" fill="none" xmlns="http://www.w3.org/2000/svg">
<path d="M9 13C10.0609 13 11.0783 12.5786 11.8284 11.8284C12.5786 11.0783 13 10.0609 13 9C13 7.93913 12.5786 6.92172 11.8284 6.17157C11.0783 5.42143 10.0609 5 9 5C7.93913 5 6.92172 5.42143 6.17157 6.17157C5.42143 6.92172 5 7.93913 5 9C5 10.0609 5.42143 11.0783 6.17157 11.8284C6.92172 12.5786 7.93913 13 9 13Z" stroke="#E8E8E8" stroke-linecap="round" stroke-linejoin="round"/>
<path d="M5 0.5H13C14.1935 0.5 15.3377 0.974446 16.1816 1.81836C17.0256 2.66227 17.5 3.80653 17.5 5V13C17.5 14.1935 17.0256 15.3377 16.1816 16.1816C15.3377 17.0256 14.1935 17.5 13 17.5H5C3.80653 17.5 2.66227 17.0256 1.81836 16.1816C0.974446 15.3377 0.5 14.1935 0.5 13V5C0.5 3.80653 0.974446 2.66227 1.81836 1.81836C2.66227 0.974446 3.80653 0.5 5 0.5Z" stroke="#E8E8E8"/>
<path d="M14.5 3.51002L14.51 3.49902" stroke="#E8E8E8" stroke-linecap="round" stroke-linejoin="round"/>
</svg>
